# xmcd
#
# Track frame offsets: 
#        150
#        12370
#        29476
#        50870
#        64984
#        82678
#        88384
#        106950
#        113505
#        129536
#        146725
#        190071
#        199055
#        238245
#        244697
#        250444
#        251568
#        265087
#        267194
#        290189
#        329861
#
# Disc length: 4436 seconds
#
# Revision: 0
# Processed by: cddbd v1.5.1PL0 Copyright (c) Steve Scherf et al.
# Submitted via: ExactAudioCopy v0.95a5
#
DISCID=47115215
DTITLE=The Grandmothers - 20 Year Anthology of The Grandmothers
DYEAR=2001
DGENRE=Blues
TTITLE0=Lady Queen Bee
TTITLE1=The Ethernal Question
TTITLE2=Moon Unit
TTITLE3=We Don't Feed No Livestock
TTITLE4=Mayonnaise Moantain
TTITLE5=Motorhead's Bumble Bee
TTITLE6=Going To Idaho
TTITLE7=Basement Theme Downstairs
TTITLE8=Waiting
TTITLE9=Who Did You Love
TTITLE10=Trail of Tears
TTITLE11=Tenor Sax is so sexy
TTITLE12=Holiday in Berlin
TTITLE13=Aybe sea
TTITLE14=Silicone hump
TTITLE15=Mystic Hysterics
TTITLE16=Garlic soup in an eastern place
TTITLE17=Return of the son of Big Culo
TTITLE18=Junk Food
TTITLE19=The Great White Buffalo
TTITLE20=The Big Culo
EXTD=
EXTT0=
EXTT1=
EXTT2=
EXTT3=
EXTT4=
EXTT5=
EXTT6=
EXTT7=
EXTT8=
EXTT9=
EXTT10=
EXTT11=
EXTT12=
EXTT13=
EXTT14=
EXTT15=
EXTT16=
EXTT17=
EXTT18=
EXTT19=
EXTT20=
PLAYORDER=
